<?xml version="1.0" encoding="utf-8"?>
<!-- Generator: Adobe Illustrator 26.2.1, SVG Export Plug-In . SVG Version: 6.00 Build 0)  -->
<svg version="1.1"
	 id="svg21670" xmlns:cc="http://creativecommons.org/ns#" xmlns:dc="http://purl.org/dc/elements/1.1/" xmlns:rdf="http://www.w3.org/1999/02/22-rdf-syntax-ns#" xmlns:svg="http://www.w3.org/2000/svg"
	 xmlns="http://www.w3.org/2000/svg" xmlns:xlink="http://www.w3.org/1999/xlink" x="0px" y="0px" viewBox="0 0 550.7 70.5"
	 style="enable-background:new 0 0 550.7 70.5;" xml:space="preserve">
<style type="text/css">
	.st0{fill:#FFFFFF;}
</style>
<g id="logo-group">
	<g id="logo-center" transform="translate(-1.1368683772161603e-13 0)">
		<g>
			<g>
				<defs>
					<polygon id="SVGID_1_" points="-235.9,-345.7 -234.9,-345.7 -235.9,-344.7 					"/>
				</defs>
				<clipPath id="SVGID_00000060005332103419625360000017584530535527075468_">
					<use xlink:href="#SVGID_1_"  style="overflow:visible;"/>
				</clipPath>
			</g>
		</g>
		<g id="slogan" transform="translate(0 0)">
		</g>
		<g id="title" transform="translate(0 0)">
			<path id="path21679" class="st0" d="M16.6,62.9V41.8h13.1c5.7,0,10.6,3,10.6,7.6c0,2.8-1,4.5-1.3,6.1c-0.7,2.8,0,5,2.7,6.5
				c2.9,1.5,6.5,0.6,8.1-2.2c1.7-3,2.5-6.3,2.5-10.4c0-6.5-4.1-12.3-9.3-14.8c2.7-2.2,5.5-7.5,5.5-13c0-8.5-6.7-15.7-19.2-15.7H10.6
				h-0.1c-3.2,0-5.9,2.7-5.9,5.9v51.1c0,3.3,2.7,5.9,5.9,5.9C13.9,68.8,16.6,66.2,16.6,62.9L16.6,62.9z M16.6,16.4h11.8
				c6.2,0,9,3.6,9,7.5c0,4.5-3.9,7.4-9,7.4H16.6V16.4z M34.4,62.9c0-3.3-2.6-6-5.9-6s-5.9,2.7-5.9,6c0,3.2,2.6,5.9,5.9,5.9
				S34.4,66.1,34.4,62.9z"/>
			<path id="path21681" class="st0" d="M69.7,68.3c3,1.4,6.5,0.1,7.9-2.9l5.7-11.9h30.2c2.1,0,3.9-1.1,4.9-2.7
				c2.1-3.1,0.4-5.7-0.5-7.7l-16-33.8c-1-2.1-3.1-3.4-5.4-3.4s-4.4,1.4-5.4,3.4l-24.3,51C65.5,63.3,66.8,66.9,69.7,68.3z M96.5,25.6
				l8.5,17.6H88.2L96.5,25.6z M120.8,56.9c-3.2,0-5.9,2.7-5.9,6c0,3.2,2.7,5.9,5.9,5.9c3.3,0,6-2.7,6-5.9
				C126.8,59.6,124.1,56.9,120.8,56.9z"/>
			<path id="path21683" class="st0" d="M156.5,62.9V41.8h13.1c5.7,0,10.6,3,10.6,7.6c0,2.8-1,4.5-1.3,6.1c-0.7,2.8,0,5,2.7,6.5
				c2.9,1.5,6.5,0.6,8.1-2.2c1.7-3,2.5-6.3,2.5-10.4c0-6.5-4.1-12.3-9.3-14.8c2.7-2.2,5.5-7.5,5.5-13c0-8.5-6.7-15.7-19.2-15.7
				h-18.6h-0.1c-3.2,0-5.9,2.7-5.9,5.9v51.1c0,3.3,2.7,5.9,5.9,5.9C153.8,68.8,156.5,66.2,156.5,62.9L156.5,62.9z M156.5,16.4h11.8
				c6.2,0,9,3.6,9,7.5c0,4.5-3.9,7.4-9,7.4h-11.8V16.4z M174.4,62.9c0-3.3-2.6-6-5.9-6s-5.9,2.7-5.9,6c0,3.2,2.6,5.9,5.9,5.9
				S174.4,66.1,174.4,62.9z"/>
			<path id="path21685" class="st0" d="M243,30.2c1.8-2.8,1-6.5-1.8-8.3c-2.8-1.7-6.5-0.9-8.3,1.9l-4.5,7.1L214.3,8.6
				c-1.7-2.8-5.4-3.6-8.2-1.9c-2.8,1.8-3.6,5.5-1.9,8.3l18.4,28.8l-0.1,19.1c0,3.2,2.7,5.9,6,5.9c3.2,0,5.9-2.7,5.9-5.9V43.6
				L243,30.2z M247.6,5.8c-3.3,0-5.9,2.7-5.9,5.9c0,3.3,2.6,6,5.9,6s5.9-2.7,5.9-6C253.5,8.5,250.9,5.8,247.6,5.8z"/>
			<path id="path21687" class="st0" d="M284.2,62.9V41.8h13.1c5.7,0,10.6,3,10.6,7.6c0,2.8-1,4.5-1.4,6.1c-0.7,2.8,0,5,2.7,6.5
				c2.9,1.5,6.5,0.6,8.1-2.2c1.7-3,2.5-6.3,2.5-10.4c0-6.5-4.1-12.3-9.3-14.8c2.7-2.2,5.5-7.5,5.5-13c0-8.5-6.7-15.7-19.2-15.7
				h-18.6h-0.1c-3.2,0-5.9,2.7-5.9,5.9v51.1c0,3.3,2.7,5.9,5.9,5.9C281.5,68.8,284.2,66.2,284.2,62.9L284.2,62.9z M284.2,16.4H296
				c6.2,0,9,3.6,9,7.5c0,4.5-3.9,7.4-9,7.4h-11.8V16.4z M302,62.9c0-3.3-2.6-6-5.9-6s-5.9,2.7-5.9,6c0,3.2,2.6,5.9,5.9,5.9
				S302,66.1,302,62.9z"/>
			<path id="path21689" class="st0" d="M402.7,37.3c0-10.3-4.7-19.6-12.8-26c-2.6-2-6.4-1.5-8.4,1.1c-2.1,2.5-1.6,6.3,1,8.4
				c5.2,4.1,8.2,10,8.2,16.6c0,11.7-9.5,21.2-21.2,21.2s-21.1-9.5-21.1-21.2c0-6.6,3-12.5,8.1-16.6c2.6-2.1,3.1-5.9,1.1-8.4
				c-2.1-2.6-5.8-3.1-8.4-1.1c-8.1,6.4-12.8,15.7-12.8,26c0,18.4,14.9,33.2,33.1,33.2C387.7,70.5,402.7,55.6,402.7,37.3z
				 M363.5,10.3c0,3.2,2.7,5.9,5.9,5.9c3.3,0,6-2.7,6-5.9c0-3.3-2.7-6-6-6C366.2,4.2,363.5,6.9,363.5,10.3z"/>
			<path id="path21691" class="st0" d="M483.6,37.3c0-10.3-4.7-19.6-12.8-26c-2.6-2-6.4-1.5-8.4,1.1c-2.1,2.5-1.6,6.3,1,8.4
				c5.2,4.1,8.2,10,8.2,16.6c0,11.7-9.5,21.2-21.2,21.2s-21.1-9.5-21.1-21.2c0-6.6,3-12.5,8.1-16.6c2.6-2.1,3.1-5.9,1.1-8.4
				c-2.1-2.6-5.8-3.1-8.4-1.1c-8.1,6.4-12.8,15.7-12.8,26c0,18.4,14.9,33.2,33.1,33.2C468.7,70.5,483.6,55.6,483.6,37.3z
				 M444.5,10.3c0,3.2,2.7,5.9,5.9,5.9c3.3,0,6-2.7,6-5.9c0-3.3-2.7-6-6-6C447.2,4.2,444.5,6.9,444.5,10.3z"/>
			<path id="path21693" class="st0" d="M543.9,58.8l-22.3-22.7l8-7.4c2.3-2.3,2.3-6.1,0-8.5s-6.1-2.2-8.5,0.1l-6.8,7.3V11.8
				c0-3.2-2.7-5.9-6-5.9c-3.2,0-5.9,2.7-5.9,5.9v51.1c0,3.2,2.7,5.9,5.9,5.9c3.3,0,6-2.7,6-5.9V44.8l21,22.2
				c2.3,2.3,6.1,2.4,8.5,0.2C546.1,64.9,546.2,61.1,543.9,58.8z M531.9,11.8c0,3.3,2.7,6,5.9,6c3.3,0,6-2.7,6-6c0-3.2-2.7-5.9-6-5.9
				C534.6,5.8,531.9,8.5,531.9,11.8z"/>
		</g>
	</g>
</g>
</svg>
